<svg width="454" height="80" viewBox="0 0 454 80" fill="none" xmlns="http://www.w3.org/2000/svg">
<g clip-path="url(#clip0_389_1024)">
<path d="M6.96399 31.432C7.98799 33.224 9.05466 34.8027 10.164 36.168C11.316 37.5333 12.596 38.6 14.004 39.368C15.412 40.136 17.012 40.52 18.804 40.52C21.1933 40.52 23.1133 39.8587 24.564 38.536C26.0147 37.2133 26.74 35.528 26.74 33.48C26.74 31.4747 26.2707 29.8747 25.332 28.68C24.3933 27.4853 23.156 26.5253 21.62 25.8C20.1267 25.032 18.5267 24.3493 16.82 23.752C15.7107 23.368 14.4733 22.8773 13.108 22.28C11.7427 21.64 10.4413 20.8507 9.20399 19.912C7.96666 18.9307 6.94266 17.736 6.13199 16.328C5.36399 14.92 4.97999 13.192 4.97999 11.144C4.97999 8.92533 5.53466 6.94133 6.64399 5.192C7.75333 3.44266 9.28933 2.07733 11.252 1.096C13.2147 0.0719973 15.4547 -0.440002 17.972 -0.440002C20.404 -0.440002 22.516 0.0293312 24.308 0.967999C26.1427 1.864 27.7 3.03733 28.98 4.488C30.26 5.896 31.2627 7.38933 31.988 8.968L27.316 11.656C26.7613 10.5467 26.0573 9.45866 25.204 8.392C24.3507 7.32533 23.3053 6.45067 22.068 5.768C20.8733 5.08533 19.4013 4.744 17.652 4.744C15.22 4.744 13.4493 5.34133 12.34 6.536C11.2307 7.688 10.676 8.98933 10.676 10.44C10.676 11.6773 10.996 12.8293 11.636 13.896C12.276 14.92 13.3427 15.9013 14.836 16.84C16.372 17.736 18.4413 18.632 21.044 19.528C22.2387 19.9547 23.4973 20.5093 24.82 21.192C26.1427 21.8747 27.3587 22.7493 28.468 23.816C29.62 24.84 30.5587 26.0987 31.284 27.592C32.0093 29.0427 32.372 30.792 32.372 32.84C32.372 34.8027 31.988 36.5733 31.22 38.152C30.4947 39.7307 29.4707 41.0747 28.148 42.184C26.868 43.2933 25.396 44.1467 23.732 44.744C22.1107 45.3413 20.404 45.64 18.612 45.64C16.18 45.64 13.9187 45.128 11.828 44.104C9.77999 43.0373 7.96666 41.6507 6.38799 39.944C4.85199 38.1947 3.59333 36.3387 2.61199 34.376L6.96399 31.432ZM57.6425 22.6C57.6425 25.9707 58.3678 28.9787 59.8185 31.624C61.3118 34.2693 63.3385 36.36 65.8985 37.896C68.4585 39.432 71.3598 40.2 74.6025 40.2C77.8878 40.2 80.7892 39.432 83.3065 37.896C85.8665 36.36 87.8718 34.2693 89.3225 31.624C90.8158 28.9787 91.5625 25.9707 91.5625 22.6C91.5625 19.2293 90.8158 16.2213 89.3225 13.576C87.8718 10.9307 85.8665 8.84 83.3065 7.304C80.7892 5.768 77.8878 5 74.6025 5C71.3598 5 68.4585 5.768 65.8985 7.304C63.3385 8.84 61.3118 10.9307 59.8185 13.576C58.3678 16.2213 57.6425 19.2293 57.6425 22.6ZM51.8825 22.6C51.8825 19.3147 52.4372 16.2853 53.5465 13.512C54.6985 10.696 56.2985 8.264 58.3465 6.216C60.3945 4.12533 62.8052 2.504 65.5785 1.352C68.3518 0.157331 71.3598 -0.440002 74.6025 -0.440002C77.8878 -0.440002 80.8958 0.157331 83.6265 1.352C86.3998 2.504 88.8105 4.12533 90.8585 6.216C92.9065 8.264 94.4852 10.696 95.5945 13.512C96.7465 16.2853 97.3225 19.3147 97.3225 22.6C97.3225 25.8427 96.7465 28.872 95.5945 31.688C94.4852 34.504 92.9065 36.9573 90.8585 39.048C88.8105 41.096 86.3998 42.7173 83.6265 43.912C80.8958 45.064 77.8878 45.64 74.6025 45.64C71.3598 45.64 68.3518 45.064 65.5785 43.912C62.8052 42.7173 60.3945 41.096 58.3465 39.048C56.2985 36.9573 54.6985 34.504 53.5465 31.688C52.4372 28.872 51.8825 25.8427 51.8825 22.6ZM153.005 0.199997H158.445V47.24L124.525 11.656V45H119.085V-2.04L153.005 33.544V0.199997ZM185.99 22.6C185.99 25.9707 186.715 28.9787 188.166 31.624C189.659 34.2693 191.686 36.36 194.246 37.896C196.806 39.432 199.707 40.2 202.95 40.2C206.235 40.2 209.137 39.432 211.654 37.896C214.214 36.36 216.219 34.2693 217.67 31.624C219.163 28.9787 219.91 25.9707 219.91 22.6C219.91 19.2293 219.163 16.2213 217.67 13.576C216.219 10.9307 214.214 8.84 211.654 7.304C209.137 5.768 206.235 5 202.95 5C199.707 5 196.806 5.768 194.246 7.304C191.686 8.84 189.659 10.9307 188.166 13.576C186.715 16.2213 185.99 19.2293 185.99 22.6ZM180.23 22.6C180.23 19.3147 180.785 16.2853 181.894 13.512C183.046 10.696 184.646 8.264 186.694 6.216C188.742 4.12533 191.153 2.504 193.926 1.352C196.699 0.157331 199.707 -0.440002 202.95 -0.440002C206.235 -0.440002 209.243 0.157331 211.974 1.352C214.747 2.504 217.158 4.12533 219.206 6.216C221.254 8.264 222.833 10.696 223.942 13.512C225.094 16.2853 225.67 19.3147 225.67 22.6C225.67 25.8427 225.094 28.872 223.942 31.688C222.833 34.504 221.254 36.9573 219.206 39.048C217.158 41.096 214.747 42.7173 211.974 43.912C209.243 45.064 206.235 45.64 202.95 45.64C199.707 45.64 196.699 45.064 193.926 43.912C191.153 42.7173 188.742 41.096 186.694 39.048C184.646 36.9573 183.046 34.504 181.894 31.688C180.785 28.872 180.23 25.8427 180.23 22.6ZM250.441 5.32V0.199997H270.473V5.32H250.441ZM250.441 23.24V18.12H269.833V23.24H250.441ZM247.433 0.199997H252.873V45H247.433V0.199997ZM293.512 0.199997H298.952V45H293.512V0.199997ZM326.288 45V39.88H348.88V45H326.288ZM326.288 5.32V0.199997H348.88V5.32H326.288ZM326.288 23.24V18.12H347.6V23.24H326.288ZM323.28 0.199997H328.72V45H323.28V0.199997ZM372.547 0.199997H377.987V39.88H395.587V45H372.547V0.199997ZM415.44 0.199997H420.88V45H415.44V0.199997ZM428.88 45H418.448V39.56H428.88C431.397 39.56 433.701 39.176 435.792 38.408C437.883 37.5973 439.675 36.4667 441.168 35.016C442.661 33.5227 443.813 31.7307 444.624 29.64C445.435 27.5493 445.84 25.2027 445.84 22.6C445.84 19.9973 445.435 17.6507 444.624 15.56C443.813 13.4693 442.661 11.6987 441.168 10.248C439.675 8.75467 437.883 7.624 435.792 6.856C433.701 6.04533 431.397 5.64 428.88 5.64H418.448V0.199997H428.88C433.232 0.199997 437.093 1.13866 440.464 3.016C443.835 4.89333 446.48 7.51733 448.4 10.888C450.32 14.216 451.28 18.12 451.28 22.6C451.28 27.08 450.32 31.0053 448.4 34.376C446.48 37.704 443.835 40.3067 440.464 42.184C437.093 44.0613 433.232 45 428.88 45Z" fill="url(#paint0_linear_389_1024)"/>
<path d="M68.3579 62.272L66.4379 80H64.6779L67.2699 56.736L76.2299 73.952L85.1899 56.736L87.7819 80H86.0219L84.1019 62.272L76.2299 77.408L68.3579 62.272ZM98.9934 57.6H100.753V80H98.9934V57.6ZM113.097 57.6H114.857V80H113.097V57.6ZM119.177 80H114.057V78.24H119.177C120.564 78.24 121.823 78.016 122.953 77.568C124.105 77.12 125.087 76.4907 125.897 75.68C126.708 74.848 127.327 73.856 127.753 72.704C128.201 71.5307 128.425 70.2293 128.425 68.8C128.425 67.3707 128.201 66.08 127.753 64.928C127.327 63.7547 126.708 62.7627 125.897 61.952C125.087 61.12 124.105 60.48 122.953 60.032C121.823 59.584 120.564 59.36 119.177 59.36H114.057V57.6H119.177C121.353 57.6 123.263 58.0693 124.905 59.008C126.569 59.9467 127.86 61.2587 128.777 62.944C129.716 64.608 130.185 66.56 130.185 68.8C130.185 71.04 129.716 73.0027 128.777 74.688C127.86 76.352 126.569 77.6533 124.905 78.592C123.263 79.5307 121.353 80 119.177 80ZM141.261 57.6H143.021V80H141.261V57.6ZM179.487 76.768L187.391 57.6H189.375L179.487 80.864L169.599 57.6H171.583L179.487 76.768ZM199.318 57.6H201.078V80H199.318V57.6ZM213.582 73.536C213.945 74.4747 214.382 75.328 214.894 76.096C215.428 76.864 216.078 77.4827 216.846 77.952C217.614 78.4 218.532 78.624 219.598 78.624C221.049 78.624 222.18 78.2293 222.99 77.44C223.822 76.6293 224.238 75.6053 224.238 74.368C224.238 73.28 223.993 72.4053 223.502 71.744C223.012 71.0827 222.372 70.5493 221.582 70.144C220.814 69.7173 220.004 69.344 219.15 69.024C218.51 68.7893 217.838 68.512 217.134 68.192C216.452 67.8507 215.812 67.4453 215.214 66.976C214.617 66.4853 214.126 65.8987 213.742 65.216C213.38 64.5333 213.198 63.712 213.198 62.752C213.198 61.6853 213.454 60.7467 213.966 59.936C214.478 59.104 215.193 58.464 216.11 58.016C217.028 57.5467 218.062 57.312 219.214 57.312C220.409 57.312 221.433 57.536 222.286 57.984C223.161 58.432 223.886 58.9973 224.462 59.68C225.038 60.3627 225.476 61.0667 225.774 61.792L224.238 62.656C224.004 62.08 223.662 61.5147 223.214 60.96C222.788 60.4053 222.244 59.9467 221.582 59.584C220.921 59.2 220.1 59.008 219.118 59.008C217.817 59.008 216.814 59.3493 216.11 60.032C215.406 60.6933 215.054 61.5253 215.054 62.528C215.054 63.36 215.257 64.0747 215.662 64.672C216.068 65.2693 216.676 65.8133 217.486 66.304C218.297 66.7733 219.3 67.2213 220.494 67.648C221.113 67.8827 221.753 68.1707 222.414 68.512C223.076 68.8533 223.673 69.28 224.206 69.792C224.761 70.304 225.209 70.9227 225.55 71.648C225.892 72.352 226.062 73.1947 226.062 74.176C226.062 75.0933 225.892 75.9253 225.55 76.672C225.23 77.4187 224.772 78.0693 224.174 78.624C223.598 79.1573 222.916 79.5733 222.126 79.872C221.337 80.1493 220.484 80.288 219.566 80.288C218.265 80.288 217.124 80.0213 216.142 79.488C215.161 78.9547 214.34 78.24 213.678 77.344C213.017 76.448 212.505 75.4773 212.142 74.432L213.582 73.536ZM237.084 57.6H238.844V72.768C238.844 74.56 239.313 75.9893 240.252 77.056C241.19 78.1227 242.524 78.656 244.252 78.656C245.98 78.656 247.313 78.1227 248.252 77.056C249.19 75.9893 249.66 74.56 249.66 72.768V57.6H251.42V72.768C251.42 73.8773 251.26 74.9013 250.94 75.84C250.62 76.7573 250.15 77.5467 249.532 78.208C248.913 78.8693 248.156 79.392 247.26 79.776C246.385 80.1387 245.382 80.32 244.252 80.32C243.121 80.32 242.108 80.1387 241.212 79.776C240.337 79.392 239.59 78.8693 238.972 78.208C238.353 77.5467 237.884 76.7573 237.564 75.84C237.244 74.9013 237.084 73.8773 237.084 72.768V57.6ZM265.482 72.48L266.058 70.816H276.394L276.97 72.48H265.482ZM271.178 60.8L266.826 71.392L266.634 71.776L263.274 80H261.29L271.178 56.736L281.066 80H279.082L275.754 71.904L275.594 71.488L271.178 60.8ZM291.074 57.6H292.834V78.336H302.082V80H291.074V57.6ZM312.206 57.6H313.966V80H312.206V57.6ZM324.806 59.264V57.6H340.358L327.174 78.336H339.846V80H324.166L337.35 59.264H324.806ZM351.59 80V78.336H362.694V80H351.59ZM351.59 59.264V57.6H362.694V59.264H351.59ZM351.59 68.544V66.88H362.054V68.544H351.59ZM350.662 57.6H352.422V80H350.662V57.6ZM378.604 69.312H380.556L388.204 80H386.028L378.604 69.312ZM374.796 57.6H376.556V80H374.796V57.6ZM375.724 59.168V57.6H379.916C381.367 57.6 382.657 57.856 383.788 58.368C384.94 58.88 385.847 59.616 386.508 60.576C387.169 61.536 387.5 62.7093 387.5 64.096C387.5 65.4613 387.169 66.6347 386.508 67.616C385.847 68.5973 384.94 69.344 383.788 69.856C382.657 70.3467 381.367 70.592 379.916 70.592H375.724V69.024H379.916C381.047 69.024 382.049 68.8427 382.924 68.48C383.82 68.096 384.513 67.5413 385.004 66.816C385.495 66.0693 385.74 65.1627 385.74 64.096C385.74 63.0293 385.484 62.1333 384.972 61.408C384.481 60.6827 383.799 60.128 382.924 59.744C382.049 59.36 381.047 59.168 379.916 59.168H375.724Z" fill="#D3D0FF" fill-opacity="0.75"/>
</g>
<defs>
<linearGradient id="paint0_linear_389_1024" x1="70.3862" y1="-23" x2="216.534" y2="185.894" gradientUnits="userSpaceOnUse">
<stop stop-color="#7EFFA2"/>
<stop offset="0.5" stop-color="#59ACFF"/>
<stop offset="1" stop-color="#B353FF"/>
</linearGradient>
<clipPath id="clip0_389_1024">
<rect width="454" height="80" fill="white"/>
</clipPath>
</defs>
</svg>
